<svg width="66" height="66" viewBox="0 0 66 66" fill="none" xmlns="http://www.w3.org/2000/svg">
<circle cx="32.9465" cy="32.9998" r="32.2864" fill="#8DB58F"/>
<path fill-rule="evenodd" clip-rule="evenodd" d="M30.0669 23.8704C25.6617 24.5769 22.2962 28.3953 22.2962 32.9997C22.2962 38.1063 26.436 42.2461 31.5426 42.2461H41.6213L32.0375 32.0922C30.8533 30.8941 30.1187 29.2439 30.1157 27.425L30.0669 23.8704ZM37.9277 33.9688L46.1836 42.7157C46.594 43.1506 46.7065 43.7878 46.4697 44.3368C46.233 44.8859 45.6924 45.2415 45.0945 45.2415H31.5426C24.7816 45.2415 19.3008 39.7607 19.3008 32.9997C19.3008 26.2387 24.7816 20.7578 31.5426 20.7578L36.7707 20.7591C36.7708 20.7591 36.7709 20.7591 36.771 20.7591C40.4463 20.7593 43.4256 23.7388 43.4256 27.4141C43.4256 30.6948 41.0516 33.4211 37.9277 33.9688ZM33.0611 23.7536L33.111 27.3935C33.1111 27.4004 33.1112 27.4072 33.1112 27.4141C33.1112 28.4215 33.5163 29.3314 34.176 29.9946C34.8404 30.6627 35.7562 31.0735 36.7707 31.0735C38.7917 31.0735 40.4301 29.4351 40.4301 27.4141C40.4301 25.393 38.7917 23.7546 36.7707 23.7546L33.0611 23.7536Z" fill="white"/>
</svg>
